<svg xmlns="http://www.w3.org/2000/svg" xmlns:xlink="http://www.w3.org/1999/xlink" width="500" zoomAndPan="magnify" viewBox="0 0 375 374.999991" height="500" preserveAspectRatio="xMidYMid meet" version="1.0"><defs><clipPath id="4424af6c8f"><path d="M 129 84.210938 L 246.667969 84.210938 L 246.667969 290.460938 L 129 290.460938 Z M 129 84.210938 " clip-rule="nonzero"/></clipPath></defs><g clip-path="url(#4424af6c8f)"><path fill="#fd1c7a" d="M 200.457031 130.429688 L 200.457031 221.421875 C 200.457031 233.84375 194.394531 245.398438 174.191406 245.398438 C 158.609375 245.398438 151.96875 239.332031 145.621094 228.066406 C 119.203125 243.28125 125.921875 283.242188 155.878906 288.867188 C 161.53125 289.925781 167.539062 290.460938 173.902344 290.464844 C 204.003906 290.464844 228.648438 277.585938 239.957031 253.585938 C 242.882812 247.367188 244.917969 240.40625 245.917969 232.730469 C 246.402344 228.976562 246.640625 225.207031 246.632812 221.421875 L 246.632812 84.210938 C 221.128906 84.210938 200.457031 104.902344 200.457031 130.429688 Z M 200.457031 130.429688 " fill-opacity="1" fill-rule="nonzero"/><path fill="#1934fa" d="M 246.632812 198.042969 L 246.632812 221.417969 C 246.640625 225.203125 246.398438 228.972656 245.917969 232.722656 C 244.914062 240.402344 242.882812 247.363281 239.953125 253.578125 C 228.648438 277.582031 204.003906 290.460938 173.902344 290.460938 C 167.542969 290.460938 161.535156 289.929688 155.878906 288.863281 C 125.921875 283.242188 119.203125 243.28125 145.621094 228.0625 C 151.96875 239.332031 158.609375 245.394531 174.191406 245.394531 C 174.191406 245.394531 235.292969 274.25 246.632812 198.042969 Z M 200.457031 130.425781 L 200.457031 221.417969 C 200.457031 221.417969 207.726562 155.734375 246.632812 147.589844 L 246.632812 84.210938 C 221.128906 84.210938 200.457031 104.902344 200.457031 130.429688 Z M 200.457031 130.425781 " fill-opacity="1" fill-rule="nonzero"/><path fill="#167bef" d="M 245.917969 232.722656 C 244.914062 240.402344 242.886719 247.363281 239.957031 253.578125 C 228.648438 277.582031 204.003906 290.460938 173.902344 290.460938 C 167.542969 290.460938 161.535156 289.929688 155.878906 288.863281 C 125.921875 283.242188 119.203125 243.28125 145.621094 228.0625 C 145.039062 231.617188 143.351562 244.566406 151.367188 256.007812 C 159.632812 267.804688 172.78125 270.25 180.636719 271.710938 C 186.328125 272.769531 199.527344 274.328125 213.925781 268.074219 C 236.664062 258.203125 244.570312 236.613281 245.917969 232.722656 Z M 200.457031 130.429688 L 200.457031 202.640625 C 200.457031 139.179688 246.632812 123.015625 246.632812 123.015625 L 246.632812 84.210938 C 221.128906 84.210938 200.457031 104.902344 200.457031 130.429688 Z M 200.457031 130.429688 " fill-opacity="1" fill-rule="nonzero"/></g></svg>